<svg width="23" height="24" viewBox="0 0 23 24" fill="none" xmlns="http://www.w3.org/2000/svg">
<path d="M17.8563 9.32153H11.1408C10.5471 9.32153 9.97778 9.55737 9.55798 9.97717C9.13818 10.397 8.90234 10.9663 8.90234 11.56V18.2755C8.90234 18.8692 9.13818 19.4386 9.55798 19.8584C9.97778 20.2781 10.5471 20.514 11.1408 20.514H17.8563C18.45 20.514 19.0194 20.2781 19.4392 19.8584C19.859 19.4386 20.0948 18.8692 20.0948 18.2755V11.56C20.0948 10.9663 19.859 10.397 19.4392 9.97717C19.0194 9.55737 18.45 9.32153 17.8563 9.32153Z" stroke="#9FA0A0" stroke-width="1.5" stroke-miterlimit="10"/>
<path d="M6.10475 14.9178H5.54513C4.30463 14.9178 3.30664 13.9198 3.30664 12.6793V5.96383C3.30664 4.72334 4.30463 3.72534 5.54513 3.72534H12.2606C13.5011 3.72534 14.4991 4.72334 14.4991 5.96383V6.52346" stroke="#9FA0A0" stroke-width="1.5" stroke-miterlimit="10" stroke-linecap="round"/>
</svg>
