<svg width="17" height="16" viewBox="0 0 17 16" fill="none" xmlns="http://www.w3.org/2000/svg">
<path d="M15.1249 7.55628C15.1249 7.3108 15.3239 7.1118 15.5694 7.1118C15.8149 7.1118 16.0139 7.3108 16.0139 7.55628V13.7791C16.0139 15.0065 15.0189 16.0015 13.7914 16.0015H2.22244C0.995018 16.0015 0 15.0065 0 13.7791V2.22244C0 0.995019 0.995018 0 2.22244 0H8.45759C8.70308 0 8.90208 0.199004 8.90208 0.444487C8.90208 0.689971 8.70308 0.888975 8.45759 0.888975H2.22244C1.48599 0.888975 0.888974 1.48599 0.888974 2.22244V13.7791C0.888974 14.5156 1.48599 15.1126 2.22244 15.1126H13.7914C14.5279 15.1126 15.1249 14.5156 15.1249 13.7791V7.55628ZM14.1057 0.130187L15.8837 1.90814C16.0573 2.08172 16.0573 2.36315 15.8837 2.53674L8.77189 9.64853C8.68854 9.73189 8.57548 9.77872 8.45759 9.77872H6.67965C6.43416 9.77872 6.23516 9.57972 6.23516 9.33423V7.55628C6.23516 7.4384 6.28199 7.32534 6.36535 7.24198L13.4771 0.130187C13.6507 -0.0433957 13.9322 -0.0433957 14.1057 0.130187ZM13.7914 1.07309L7.12413 7.7404V8.88975H8.27348L14.9408 2.22244L13.7914 1.07309Z" fill="#9FA0A0"/>
</svg>
