<svg width="24" height="24" viewBox="0 0 24 24" fill="none" xmlns="http://www.w3.org/2000/svg">
<path fill-rule="evenodd" clip-rule="evenodd" d="M12 0C5.37321 0 0 5.50743 0 12.306C0 17.7438 3.43929 22.3512 8.20714 23.9798C8.80714 24.0923 9.02679 23.712 9.02679 23.3852C9.02679 23.0905 9.01607 22.319 9.01071 21.2904C5.67321 22.0351 4.96607 19.6403 4.96607 19.6403C4.41964 18.2206 3.63214 17.8402 3.63214 17.8402C2.54464 17.0741 3.7125 17.0902 3.7125 17.0902C4.91786 17.1759 5.55 18.3599 5.55 18.3599C6.62143 20.2404 8.35714 19.6993 9.04286 19.3832C9.15 18.5903 9.46071 18.0438 9.80357 17.7384C7.14107 17.4277 4.33929 16.3723 4.33929 11.6578C4.33929 10.313 4.80536 9.21477 5.57143 8.35758C5.44821 8.04685 5.03571 6.79322 5.68929 5.10027C5.68929 5.10027 6.69643 4.76811 8.98929 6.35926C9.94821 6.08604 10.9714 5.9521 11.9946 5.94674C13.0125 5.9521 14.0411 6.08604 15 6.35926C17.2929 4.76811 18.2946 5.10027 18.2946 5.10027C18.9482 6.79322 18.5357 8.04685 18.4125 8.35758C19.1786 9.22013 19.6446 10.3184 19.6446 11.6578C19.6446 16.383 16.8375 17.4223 14.1643 17.7277C14.5929 18.1081 14.9786 18.8581 14.9786 20.0046C14.9786 21.6494 14.9625 22.978 14.9625 23.3798C14.9625 23.7066 15.1768 24.0923 15.7875 23.9691C20.5661 22.3458 24 17.7384 24 12.306C24 5.50743 18.6268 0 12 0Z" fill="#9FA0A0"/>
</svg>
