<svg width="24" height="24" viewBox="0 0 24 24" fill="none" xmlns="http://www.w3.org/2000/svg">
<path d="M20.8374 0.888184H2.95475C1.68857 0.888184 0.662109 1.91465 0.662109 3.18083V21.0635C0.662109 22.3296 1.68857 23.3561 2.95475 23.3561H20.8374C22.1036 23.3561 23.13 22.3296 23.13 21.0635V3.18083C23.13 1.91465 22.1036 0.888184 20.8374 0.888184ZM7.62928 19.0784H4.61257V9.37336H7.62928V19.0784ZM6.10104 8.18256C5.1484 8.18256 4.5332 7.50783 4.5332 6.67422C4.5332 5.82086 5.1683 5.16585 6.14075 5.16585C7.1132 5.16585 7.70865 5.82081 7.72845 6.67422C7.72845 7.50783 7.1132 8.18256 6.10104 8.18256ZM19.2589 19.0784H16.2423V13.6999C16.2423 12.4496 15.8057 11.5962 14.7141 11.5962C13.8805 11.5962 13.3844 12.1718 13.1661 12.7274C13.0866 12.9259 13.0668 13.2038 13.0668 13.4816V19.0784H10.0501V12.4694C10.0501 11.2588 10.0105 10.2466 9.97075 9.37336H12.5905L12.7294 10.723H12.789C13.1859 10.0879 14.1584 9.1551 15.7858 9.1551C17.7704 9.1551 19.2589 10.4848 19.2589 13.3427V19.0784Z" fill="#9FA0A0"/>
</svg>
