<svg width="127" height="35" viewBox="0 0 127 35" fill="none" xmlns="http://www.w3.org/2000/svg">
<path d="M54.2141 11.5141C53.6675 11.1698 52.8475 11 51.7543 11C50.582 11 49.5068 11.2823 48.5333 11.8491C47.8241 12.2622 47.2187 12.7808 46.715 13.4073V12.5445C46.715 12.0993 46.5998 11.7619 46.3717 11.5301C46.1436 11.2983 45.8002 11.1813 45.3417 11.1813C44.9238 11.1813 44.5963 11.3029 44.3569 11.5439C44.1175 11.7849 44 12.1199 44 12.5445V26.3919C44 26.8371 44.1197 27.1744 44.3569 27.4062C44.5963 27.638 44.9238 27.755 45.3417 27.755C45.798 27.755 46.1413 27.6334 46.3717 27.3924C46.5998 27.1492 46.715 26.8164 46.715 26.3919V17.4532C46.715 16.5238 46.9928 15.7367 47.5508 15.0895C48.1064 14.4423 48.8631 13.988 49.8163 13.7263C50.7717 13.4647 51.8537 13.4326 53.0666 13.6345C53.3445 13.6758 53.6042 13.6896 53.8414 13.6804C54.0808 13.6713 54.2886 13.6001 54.467 13.4693C54.6455 13.3385 54.7652 13.1205 54.8239 12.8176C54.9617 12.292 54.7584 11.8583 54.2118 11.5141H54.2141ZM68.067 12.1061C66.9534 11.4085 65.6321 11.0597 64.1006 11.0597C62.5692 11.0597 61.1484 11.4177 59.9558 12.136C58.7632 12.8543 57.8281 13.8434 57.1527 15.1056C56.4773 16.3678 56.1385 17.8273 56.1385 19.4842C56.1385 21.1411 56.4954 22.5709 57.2114 23.833C57.9275 25.0952 58.9168 26.0866 60.1794 26.8026C61.4421 27.5209 62.899 27.8789 64.5478 27.8789C65.4626 27.8789 66.4226 27.7022 67.4255 27.3488C68.4284 26.9954 69.2686 26.5456 69.9463 25.9994C70.2444 25.7562 70.3845 25.4693 70.3641 25.1365C70.3438 24.8038 70.1857 24.4963 69.8875 24.2117C69.6481 24.0098 69.3703 23.9134 69.0518 23.9248C68.7333 23.9363 68.4352 24.0511 68.1573 24.2737C67.7598 24.5972 67.2177 24.8795 66.531 25.1228C65.8444 25.366 65.1848 25.4854 64.5478 25.4854C63.3756 25.4854 62.3456 25.2238 61.4601 24.6982C60.5747 24.1727 59.879 23.4613 59.3731 22.5617C59.0094 21.9145 58.7767 21.2031 58.6751 20.4251H70.2738C70.651 20.4251 70.9537 20.3081 71.1841 20.0763C71.4122 19.8445 71.5274 19.5554 71.5274 19.2134C71.5274 17.6185 71.2292 16.2094 70.6329 14.9862C70.0366 13.7653 69.1805 12.8038 68.067 12.1084V12.1061ZM61.1642 14.2427C61.9887 13.7172 62.969 13.4555 64.1029 13.4555C65.1374 13.4555 66.0206 13.6988 66.7569 14.183C67.4933 14.6672 68.0579 15.3351 68.4577 16.1819C68.7423 16.79 68.9298 17.4578 69.0202 18.1807H58.718C58.8219 17.5404 59.0049 16.9438 59.2714 16.393C59.7096 15.4842 60.3398 14.7682 61.1642 14.2427ZM87.8559 12.1658C86.6136 11.4291 85.2064 11.0597 83.6366 11.0597C82.0667 11.0597 80.6934 11.4223 79.4601 12.1497C78.2268 12.8772 77.2488 13.8778 76.5215 15.1492C75.7964 16.4228 75.4237 17.8457 75.4034 19.4223V33.4509C75.4034 33.8548 75.5322 34.1876 75.7919 34.4515C76.0494 34.7131 76.3792 34.8462 76.7767 34.8462C77.1946 34.8462 77.5266 34.7154 77.7751 34.4515C78.0236 34.1876 78.1478 33.8548 78.1478 33.4509V24.9667C78.8435 25.8548 79.6995 26.5617 80.7137 27.0872C81.7279 27.6127 82.8618 27.8744 84.1132 27.8744C85.5836 27.8744 86.9072 27.5118 88.0795 26.7843C89.2518 26.0568 90.1824 25.0562 90.8691 23.7849C91.5557 22.5112 91.8991 21.0792 91.8991 19.4819C91.8991 17.8847 91.5354 16.4274 90.8103 15.1629C90.0853 13.9007 89.1005 12.9002 87.8582 12.1635L87.8559 12.1658ZM88.4816 22.4997C87.9937 23.3993 87.3273 24.1061 86.4826 24.6202C85.6378 25.1343 84.6891 25.3936 83.6343 25.3936C82.5795 25.3936 81.6308 25.1365 80.786 24.6202C79.9412 24.1061 79.2794 23.397 78.8028 22.4997C78.3262 21.6001 78.0868 20.595 78.0868 19.4842C78.0868 18.3735 78.3262 17.3431 78.8028 16.455C79.2794 15.5668 79.9412 14.86 80.786 14.3345C81.6308 13.8089 82.5795 13.5473 83.6343 13.5473C84.6891 13.5473 85.6378 13.8044 86.4826 14.3207C87.3273 14.8348 87.9937 15.5439 88.4816 16.4412C88.9695 17.3408 89.2111 18.3551 89.2111 19.4865C89.2111 20.6179 88.9672 21.6024 88.4816 22.502V22.4997ZM106.258 19.241C105.393 18.7774 104.216 18.4033 102.723 18.1188C101.65 17.9168 100.823 17.6896 100.247 17.4372C99.6714 17.1847 99.2784 16.9071 99.0683 16.6041C98.8605 16.3012 98.7544 15.9478 98.7544 15.5439C98.7544 14.9174 99.0683 14.4217 99.694 14.0591C100.32 13.6965 101.11 13.5129 102.066 13.5129C102.861 13.5129 103.561 13.6185 104.169 13.8319C104.774 14.043 105.327 14.4125 105.824 14.938C106.082 15.2203 106.405 15.3924 106.793 15.4521C107.182 15.5118 107.525 15.4521 107.823 15.2708C108.121 15.0482 108.286 14.7751 108.316 14.4515C108.345 14.1279 108.23 13.8158 107.972 13.5129C107.376 12.7464 106.581 12.1452 105.587 11.7091C104.593 11.2754 103.439 11.0574 102.127 11.0574C101.092 11.0574 100.114 11.2249 99.188 11.5577C98.2642 11.8904 97.5188 12.3953 96.9519 13.0723C96.3849 13.7493 96.1026 14.603 96.1026 15.6334C96.1026 16.7854 96.5589 17.7653 97.4737 18.5732C98.3885 19.381 99.8499 19.9776 101.858 20.3609C103.41 20.6225 104.492 20.9828 105.108 21.4372C105.725 21.8916 106.032 22.4515 106.032 23.1193C106.012 23.7665 105.689 24.3058 105.063 24.7395C104.437 25.1733 103.477 25.3913 102.185 25.3913C101.271 25.3913 100.43 25.2306 99.6646 24.9071C98.8989 24.5835 98.3184 24.2002 97.9209 23.755C97.6815 23.4727 97.3833 23.3098 97.0264 23.2708C96.6695 23.2295 96.3194 23.3419 95.9829 23.6036C95.6644 23.8675 95.486 24.1796 95.4453 24.5422C95.4046 24.9048 95.5153 25.2398 95.7728 25.5427C96.4482 26.2702 97.372 26.8417 98.5466 27.2547C99.7189 27.6701 100.963 27.8767 102.273 27.8767C103.584 27.8767 104.778 27.6655 105.734 27.241C106.689 26.8164 107.419 26.2358 107.925 25.4991C108.431 24.7625 108.686 23.9294 108.686 23C108.686 22.2129 108.496 21.506 108.119 20.8795C107.742 20.253 107.121 19.7091 106.256 19.2433L106.258 19.241ZM125.15 11.3029C124.375 10.9793 123.808 11.202 123.449 11.9684L118.36 23.537L112.743 11.9386C112.582 11.576 112.35 11.3373 112.043 11.2272C111.733 11.117 111.41 11.1423 111.074 11.3029C110.717 11.4452 110.473 11.677 110.344 12.0006C110.215 12.3242 110.24 12.6569 110.419 13.0011L117.116 26.3712L114.145 33.1205C113.789 33.9076 114.005 34.4837 114.803 34.8485C115.042 34.9495 115.25 35 115.428 35C115.905 35 116.264 34.7177 116.501 34.1509L125.837 13.031C126.194 12.2232 125.966 11.6472 125.15 11.3029Z" fill="white"/>
<path d="M16.8871 21.786C15.7022 22.4111 8.90797 22.5516 6.32189 17.1756C6.30118 17.1241 6.27817 17.0725 6.25977 17.021C6.25977 17.021 10.4771 22.0505 17.6118 19.702C22.0616 27.155 31.7985 23.3149 33.2135 16.4544C33.4735 24.8673 21.9994 29.356 16.8871 21.786ZM29.9924 15.6887C29.9924 15.6887 29.2699 12.8485 26.0189 13.8881C26.0304 13.7289 26.0718 13.5744 26.1524 13.4362C27.1118 11.734 30.9541 13.9935 29.9924 15.6911V15.6887Z" fill="#FF44A0"/>
<path d="M24.384 31.845C23.9744 32.1728 22.2189 33.1515 22.0141 33.2241C19.1083 32.2992 16.0436 29.3771 15.0152 26.4455C9.90511 27.6491 5.1954 22.2402 5.55662 17.5807C6.69091 22.1208 11.5364 25.6213 16.1748 24.1158C16.1748 24.1158 16.7453 25.5651 16.8029 25.6892C17.0951 26.3167 17.4563 26.9349 17.8382 27.4992C18.3628 28.2742 18.9495 28.965 19.6627 29.5784C20.8154 30.5689 22.189 31.3392 23.6615 31.6998C23.7673 31.7256 23.8732 31.7513 23.9836 31.7724C24.1171 31.8005 24.2505 31.8239 24.384 31.845ZM18.7194 9.79288C18.7194 9.79288 17.997 6.95031 14.746 7.98993C15.1417 5.51264 19.7801 7.93374 18.7194 9.79288Z" fill="#FF44A0"/>
<path d="M32.8206 13.9959C30.7706 10.8512 25.4052 10.9753 22.5729 11.8464C22.0138 7.12359 16.9797 4.02581 12.9648 3.83381C17.3501 3.26482 21.9747 5.72807 23.6566 9.99426C27.3333 9.83972 31.2791 9.23796 32.8022 13.935C32.8091 13.9561 32.816 13.9771 32.8229 13.9959H32.8206Z" fill="#FCC0E0"/>
<path d="M8.04251 5.53601C8.04251 5.53601 7.63757 5.28313 7.47191 5.13562C5.80384 3.77053 6.14666 0.370694 8.38532 0.0124465H8.38762C9.09396 -0.0577981 9.74969 0.174009 10.2812 0.588452C6.70345 1.44544 7.99419 5.39318 8.04251 5.53601Z" fill="#FF44A0"/>
<path d="M20.3457 33.9593C4.02849 40.2111 -7.931 16.6721 6.4075 6.56629C6.44201 6.54054 6.47882 6.51712 6.51563 6.49136C6.56165 6.45858 6.60767 6.42814 6.65368 6.39771C-3.73437 17.6251 3.64195 35.7927 20.348 33.9593H20.3457Z" fill="#FCC0E0"/>
<path d="M32.8209 13.9958C30.7709 10.8512 25.4055 10.9753 22.5732 11.8463C22.0141 7.12351 16.98 4.02572 12.9651 3.83372C12.4589 3.89928 11.9597 4.00231 11.465 4.14982C11.8722 2.862 11.3063 1.38921 10.2824 0.590759C6.70468 1.44774 7.99542 5.39549 8.04374 5.53832C7.55367 5.81227 7.09121 6.10028 6.65176 6.39999C-3.73629 17.6274 3.64003 35.795 20.346 33.9616C20.8959 33.7509 21.455 33.505 22.0141 33.2264C19.122 32.3085 16.0551 29.384 15.0151 26.4478C9.90507 27.6513 5.18616 22.2401 5.54738 17.5806C5.26899 16.4637 5.21147 15.2859 5.43695 14.1035C5.5911 15.2883 5.90171 16.3045 6.32045 17.1779C6.29974 17.1263 6.27673 17.0748 6.25833 17.0233C6.25833 17.0233 10.4757 22.0528 17.6104 19.7043C22.0601 27.1573 31.7971 23.3172 33.212 16.4567C33.189 15.6699 33.0625 14.8481 32.8186 13.9981L32.8209 13.9958ZM18.7194 9.7928C17.8957 11.3241 14.4997 9.60548 14.7459 7.98986C15.1417 5.51256 19.78 7.93366 18.7194 9.7928ZM29.9932 15.6887C29.1719 17.2223 25.7736 15.5013 26.0198 13.8881C26.0313 13.7288 26.0727 13.5743 26.1532 13.4362C27.1127 11.7339 30.955 13.9934 29.9932 15.691V15.6887Z" fill="#FF69B4"/>
</svg>
