<svg width="29" height="31" viewBox="0 0 29 31" fill="none" xmlns="http://www.w3.org/2000/svg">
<path d="M14.5938 18.8262C13.5698 19.3665 7.6986 19.4879 5.46384 14.8422C5.44594 14.7976 5.42606 14.7531 5.41016 14.7086C5.41016 14.7086 9.05458 19.0549 15.2201 17.0254C19.0653 23.4659 27.4795 20.1475 28.7022 14.219C28.9269 21.489 19.0116 25.3679 14.5938 18.8262ZM25.9187 13.5573C25.9187 13.5573 25.2944 11.1029 22.485 12.0013C22.495 11.8637 22.5308 11.7302 22.6004 11.6108C23.4294 10.1398 26.7498 12.0924 25.9187 13.5593V13.5573Z" fill="#FF44A0"/>
<path d="M21.0717 27.5189C20.7178 27.8022 19.2008 28.648 19.0238 28.7107C16.5127 27.9114 13.8644 25.3862 12.9756 22.8529C8.55977 23.893 4.48987 19.2189 4.80202 15.1924C5.78222 19.1157 9.96942 22.1407 13.9777 20.8397C13.9777 20.8397 14.4708 22.0921 14.5205 22.1994C14.773 22.7417 15.0851 23.2758 15.4152 23.7635C15.8685 24.4332 16.3755 25.0301 16.9918 25.5603C17.9879 26.4162 19.1749 27.0819 20.4474 27.3935C20.5388 27.4157 20.6303 27.438 20.7257 27.4562C20.841 27.4805 20.9564 27.5007 21.0717 27.5189ZM16.1767 8.46254C16.1767 8.46254 15.5524 6.00614 12.743 6.90452C13.085 4.76377 17.0932 6.85596 16.1767 8.46254Z" fill="#FF44A0"/>
<path d="M28.3615 12.0943C26.59 9.3769 21.9535 9.48414 19.506 10.2368C19.0228 6.15565 14.6726 3.47869 11.2031 3.31278C14.9927 2.82109 18.989 4.9497 20.4424 8.63634C23.6196 8.50279 27.0294 7.98278 28.3456 12.0417C28.3516 12.0599 28.3575 12.0781 28.3635 12.0943H28.3615Z" fill="#FCC0E0"/>
<path d="M6.94983 4.78395C6.94983 4.78395 6.5999 4.56542 6.45675 4.43795C5.01528 3.25831 5.31153 0.320335 7.24607 0.0107557H7.24806C7.85845 -0.0499463 8.42509 0.15037 8.88437 0.508511C5.79268 1.24907 6.90808 4.66052 6.94983 4.78395Z" fill="#FF44A0"/>
<path d="M17.5817 29.3457C3.48122 34.7482 -6.85358 14.407 5.53705 5.67401C5.56687 5.65175 5.59868 5.63151 5.63049 5.60926C5.67026 5.58093 5.71002 5.55462 5.74979 5.52832C-3.22706 15.2305 3.1472 30.9301 17.5837 29.3457H17.5817Z" fill="#FCC0E0"/>
<path d="M28.3629 12.0947C26.5913 9.37727 21.9548 9.48451 19.5073 10.2372C19.0242 6.15602 14.6739 3.47907 11.2045 3.31315C10.7671 3.3698 10.3356 3.45883 9.90814 3.58631C10.2601 2.47344 9.77095 1.20072 8.88619 0.510742C5.7945 1.25131 6.90989 4.66275 6.95164 4.78618C6.52815 5.02292 6.12852 5.2718 5.74877 5.53079C-3.22808 15.233 3.14618 30.9325 17.5827 29.3482C18.0579 29.1661 18.541 28.9536 19.0242 28.7129C16.525 27.9197 13.8747 25.3925 12.976 22.8551C8.56012 23.8952 4.48227 19.2191 4.79442 15.1925C4.55384 14.2274 4.50414 13.2096 4.69898 12.1878C4.8322 13.2116 5.10061 14.0898 5.46246 14.8445C5.44457 14.8 5.42469 14.7555 5.40878 14.711C5.40878 14.711 9.0532 19.0572 15.2187 17.0277C19.0639 23.4682 27.4781 20.1498 28.7009 14.2213C28.681 13.5414 28.5716 12.8312 28.3609 12.0967L28.3629 12.0947ZM16.177 8.4627C15.4652 9.786 12.5306 8.30082 12.7433 6.90468C13.0853 4.76392 17.0936 6.85612 16.177 8.4627ZM25.9193 13.5576C25.2095 14.8829 22.2729 13.3957 22.4857 12.0016C22.4956 11.864 22.5314 11.7305 22.601 11.6111C23.4301 10.1401 26.7504 12.0927 25.9193 13.5596V13.5576Z" fill="#FF69B4"/>
</svg>
