<svg width="16" height="16" viewBox="0 0 16 16" fill="none" xmlns="http://www.w3.org/2000/svg">
<path d="M1 7.5V14.5C1 14.7761 1.22386 15 1.5 15H3.5C3.77614 15 4 14.7761 4 14.5V7.5C4 7.22386 3.77614 7 3.5 7H1.5C1.22386 7 1 7.22386 1 7.5ZM4.50001 6.38195L5.38197 4.61803C5.7884 3.80516 6 2.90882 6 2V1.75C6 0.783502 6.7835 0 7.75 0C8.71649 0 9.52573 0.732354 9.6219 1.69404L9.95249 5H13.29C14.6707 5 15.79 6.11929 15.79 7.5C15.79 7.58307 15.7859 7.6661 15.7776 7.74876L15.1776 13.7488C15.0498 15.0268 13.9744 16 12.69 16H6.5C5.82744 16 5.21691 15.7344 4.76756 15.3024C4.50158 15.7217 4.03329 16 3.5 16H1.5C0.671573 16 0 15.3284 0 14.5V7.5C0 6.67157 0.671573 6 1.5 6H3.5C3.88418 6 4.23463 6.14443 4.50001 6.38195ZM5 7.61803V13.5C5 14.3284 5.67157 15 6.5 15H12.69C13.4607 15 14.1059 14.4161 14.1826 13.6493L14.7826 7.64926C14.7875 7.59966 14.79 7.54984 14.79 7.5C14.79 6.67157 14.1185 6 13.29 6H9.5C9.24312 6 9.02804 5.80535 9.00248 5.54975L8.62686 1.79355C8.58181 1.34306 8.20274 1 7.75 1C7.33579 1 7 1.33579 7 1.75V2C7 3.06407 6.75226 4.11352 6.27639 5.06525L5 7.61803Z" fill="#9FA0A0"/>
</svg>
