<svg width="17" height="16" viewBox="0 0 17 16" fill="none" xmlns="http://www.w3.org/2000/svg">
<path d="M15.5791 8.5V1.5C15.5791 1.22386 15.3552 1 15.0791 1H13.0791C12.8029 1 12.5791 1.22386 12.5791 1.5V8.5C12.5791 8.77614 12.8029 9 13.0791 9H15.0791C15.3552 9 15.5791 8.77614 15.5791 8.5ZM12.0791 9.61805L11.1971 11.382C10.7907 12.1948 10.5791 13.0912 10.5791 14V14.25C10.5791 15.2165 9.79559 16 8.82909 16C7.8626 16 7.05336 15.2676 6.95719 14.306L6.62659 11H3.28906C1.90835 11 0.789062 9.88071 0.789062 8.5C0.789062 8.41693 0.793203 8.3339 0.801469 8.25124L1.40147 2.25124C1.52927 0.973236 2.60468 0 3.88906 0H10.0791C10.7516 0 11.3622 0.265581 11.8115 0.697591C12.0775 0.2783 12.5458 0 13.0791 0H15.0791C15.9075 0 16.5791 0.671573 16.5791 1.5V8.5C16.5791 9.32843 15.9075 10 15.0791 10H13.0791C12.6949 10 12.3445 9.85557 12.0791 9.61805ZM11.5791 8.38197V2.5C11.5791 1.67157 10.9075 1 10.0791 1H3.88906C3.11844 1 2.47319 1.58394 2.39651 2.35074L1.79651 8.35074C1.79155 8.40034 1.78906 8.45016 1.78906 8.5C1.78906 9.32843 2.46064 10 3.28906 10H7.07909C7.33596 10 7.55105 10.1946 7.57661 10.4502L7.95223 14.2065C7.99727 14.6569 8.37635 15 8.82909 15C9.2433 15 9.57909 14.6642 9.57909 14.25V14C9.57909 12.9359 9.82683 11.8865 10.3027 10.9348L11.5791 8.38197Z" fill="#9FA0A0"/>
</svg>
