<svg width="40" height="40" viewBox="0 0 40 40" fill="none" xmlns="http://www.w3.org/2000/svg">
<path fill-rule="evenodd" clip-rule="evenodd" d="M7.93224 31.4192C10.3956 32.08 19.0239 32.0984 19.9997 32.0984C20.9756 32.0984 29.6039 32.0792 32.0664 31.4184C32.9804 31.1728 33.8137 30.6913 34.483 30.0222C35.1523 29.353 35.6339 28.5198 35.8797 27.6059C36.5506 25.1 36.5581 20.2125 36.5581 20.0059C36.5581 19.7992 36.5506 14.9125 35.8797 12.4067V12.4059C35.6339 11.4924 35.1524 10.6594 34.4834 9.9905C33.8145 9.32156 32.9816 8.84006 32.0681 8.59421C29.6039 7.93337 20.9756 7.91504 19.9997 7.91504C19.0239 7.91504 10.3956 7.93421 7.93307 8.59504C7.01942 8.84107 6.18638 9.32271 5.51731 9.99178C4.84825 10.6608 4.36661 11.4939 4.12057 12.4075C3.44891 14.9134 3.44141 19.8009 3.44141 20.0075C3.44141 20.2142 3.44807 25.1017 4.12057 27.6075C4.36589 28.5213 4.84721 29.3545 5.51623 30.0235C6.18525 30.6926 7.01845 31.1739 7.93224 31.4192ZM16.8166 24.7435C16.9729 24.8998 17.1849 24.9876 17.4059 24.9876C17.552 24.9874 17.6956 24.9492 17.8225 24.8768L25.005 20.7293C25.1317 20.6561 25.2369 20.5509 25.31 20.4243C25.3832 20.2976 25.4217 20.1539 25.4217 20.0076C25.4217 19.8613 25.3832 19.7176 25.31 19.591C25.2369 19.4643 25.1317 19.3591 25.005 19.2859L17.8225 15.1384C17.6959 15.0648 17.5521 15.0258 17.4057 15.0256C17.2592 15.0253 17.1152 15.0637 16.9884 15.137C16.8615 15.2102 16.7563 15.3157 16.6832 15.4426C16.6102 15.5696 16.572 15.7136 16.5725 15.8601V24.1543C16.5725 24.3753 16.6603 24.5872 16.8166 24.7435Z" fill="#9FA0A0"/>
</svg>
